<svg width="56" height="36" viewBox="0 0 56 36" fill="none" xmlns="http://www.w3.org/2000/svg">
<path id="Vector" d="M36.129 10.8H54.1935C54.6726 10.8 55.1321 10.9896 55.4709 11.3272C55.8097 11.6648 56 12.1226 56 12.6C56 13.0774 55.8097 13.5352 55.4709 13.8728C55.1321 14.2104 54.6726 14.4 54.1935 14.4H36.129C35.6499 14.4 35.1905 14.2104 34.8517 13.8728C34.5129 13.5352 34.3226 13.0774 34.3226 12.6C34.3226 12.1226 34.5129 11.6648 34.8517 11.3272C35.1905 10.9896 35.6499 10.8 36.129 10.8ZM32.5161 34.2C32.5161 34.6774 32.3258 35.1352 31.987 35.4728C31.6483 35.8104 31.1888 36 30.7097 36C30.2306 36 29.7711 35.8104 29.4323 35.4728C29.0935 35.1352 28.9032 34.6774 28.9032 34.2V30.6C28.9032 29.1678 28.3323 27.7943 27.3159 26.7816C26.2996 25.7689 24.9212 25.2 23.4839 25.2H9.03226C7.59496 25.2 6.21652 25.7689 5.2002 26.7816C4.18387 27.7943 3.6129 29.1678 3.6129 30.6V34.2C3.6129 34.6774 3.42258 35.1352 3.08381 35.4728C2.74503 35.8104 2.28555 36 1.80645 36C1.32735 36 0.867873 35.8104 0.529097 35.4728C0.190322 35.1352 0 34.6774 0 34.2V30.6C0 28.2131 0.95161 25.9239 2.64549 24.236C4.33936 22.5482 6.63675 21.6 9.03226 21.6H23.4839C25.8794 21.6 28.1768 22.5482 29.8706 24.236C31.5645 25.9239 32.5161 28.2131 32.5161 30.6V34.2ZM16.2581 18C13.8626 18 11.5652 17.0518 9.87129 15.364C8.17742 13.6761 7.22581 11.3869 7.22581 9C7.22581 6.61305 8.17742 4.32387 9.87129 2.63604C11.5652 0.948211 13.8626 0 16.2581 0C18.6536 0 20.951 0.948211 22.6448 2.63604C24.3387 4.32387 25.2903 6.61305 25.2903 9C25.2903 11.3869 24.3387 13.6761 22.6448 15.364C20.951 17.0518 18.6536 18 16.2581 18ZM16.2581 14.4C16.9697 14.4 17.6745 14.2603 18.332 13.9889C18.9895 13.7176 19.5869 13.3198 20.0901 12.8184C20.5934 12.3169 20.9925 11.7216 21.2649 11.0665C21.5372 10.4113 21.6774 9.70914 21.6774 9C21.6774 8.29086 21.5372 7.58867 21.2649 6.93351C20.9925 6.27835 20.5934 5.68306 20.0901 5.18162C19.5869 4.68019 18.9895 4.28243 18.332 4.01105C17.6745 3.73968 16.9697 3.6 16.2581 3.6C14.8208 3.6 13.4423 4.16893 12.426 5.18162C11.4097 6.19432 10.8387 7.56783 10.8387 9C10.8387 10.4322 11.4097 11.8057 12.426 12.8184C13.4423 13.8311 14.8208 14.4 16.2581 14.4ZM39.7419 19.8H54.1935C54.6726 19.8 55.1321 19.9896 55.4709 20.3272C55.8097 20.6648 56 21.1226 56 21.6C56 22.0774 55.8097 22.5352 55.4709 22.8728C55.1321 23.2104 54.6726 23.4 54.1935 23.4H39.7419C39.2628 23.4 38.8034 23.2104 38.4646 22.8728C38.1258 22.5352 37.9355 22.0774 37.9355 21.6C37.9355 21.1226 38.1258 20.6648 38.4646 20.3272C38.8034 19.9896 39.2628 19.8 39.7419 19.8Z" fill="white"/>
</svg>
