<svg width="53" height="53" viewBox="0 0 53 53" fill="none" xmlns="http://www.w3.org/2000/svg">
<circle cx="26.2411" cy="26.2411" r="25.2411" stroke="white" stroke-width="2"/>
<path d="M15.9997 35.3C14.5997 35.3 13.2581 35.1167 11.9747 34.75C10.6914 34.3667 9.65806 33.875 8.87473 33.275L10.2497 30.225C10.9997 30.7583 11.8831 31.2 12.8997 31.55C13.9331 31.8833 14.9747 32.05 16.0247 32.05C16.8247 32.05 17.4664 31.975 17.9497 31.825C18.4497 31.6583 18.8164 31.4333 19.0497 31.15C19.2831 30.8667 19.3997 30.5417 19.3997 30.175C19.3997 29.7083 19.2164 29.3417 18.8497 29.075C18.4831 28.7917 17.9997 28.5667 17.3997 28.4C16.7997 28.2167 16.1331 28.05 15.3997 27.9C14.6831 27.7333 13.9581 27.5333 13.2247 27.3C12.5081 27.0667 11.8497 26.7667 11.2497 26.4C10.6497 26.0333 10.1581 25.55 9.77473 24.95C9.40806 24.35 9.22473 23.5833 9.22473 22.65C9.22473 21.65 9.4914 20.7417 10.0247 19.925C10.5747 19.0917 11.3914 18.4333 12.4747 17.95C13.5747 17.45 14.9497 17.2 16.5997 17.2C17.6997 17.2 18.7831 17.3333 19.8497 17.6C20.9164 17.85 21.8581 18.2333 22.6747 18.75L21.4247 21.825C20.6081 21.3583 19.7914 21.0167 18.9747 20.8C18.1581 20.5667 17.3581 20.45 16.5747 20.45C15.7914 20.45 15.1497 20.5417 14.6497 20.725C14.1497 20.9083 13.7914 21.15 13.5747 21.45C13.3581 21.7333 13.2497 22.0667 13.2497 22.45C13.2497 22.9 13.4331 23.2667 13.7997 23.55C14.1664 23.8167 14.6497 24.0333 15.2497 24.2C15.8497 24.3667 16.5081 24.5333 17.2247 24.7C17.9581 24.8667 18.6831 25.0583 19.3997 25.275C20.1331 25.4917 20.7997 25.7833 21.3997 26.15C21.9997 26.5167 22.4831 27 22.8497 27.6C23.2331 28.2 23.4247 28.9583 23.4247 29.875C23.4247 30.8583 23.1497 31.7583 22.5997 32.575C22.0497 33.3917 21.2247 34.05 20.1247 34.55C19.0414 35.05 17.6664 35.3 15.9997 35.3ZM38.1921 17.5H42.2421V35H38.1921V17.5ZM30.2421 35H26.1921V17.5H30.2421V35ZM38.4921 27.825H29.9421V24.4H38.4921V27.825Z" fill="white"/>
</svg>
