<svg width="36" height="36" viewBox="0 0 36 36" fill="none" xmlns="http://www.w3.org/2000/svg">
<path id="Vector" d="M6.22247 4H1.79996C1.32258 4 0.864755 3.78929 0.527197 3.41421C0.189638 3.03914 0 2.53043 0 2C0 1.46957 0.189638 0.960859 0.527197 0.585786C0.864755 0.210714 1.32258 4.16914e-08 1.79996 4.16914e-08H7.69124C8.10619 -9.40602e-05 8.50842 0.159113 8.82986 0.450677C9.15131 0.742242 9.37222 1.14825 9.45521 1.6L10.6324 8H34.1993C34.4649 7.99988 34.7272 8.06506 34.9674 8.19087C35.2077 8.31668 35.4199 8.5 35.5888 8.72768C35.7578 8.95536 35.8793 9.22176 35.9446 9.50778C36.01 9.79379 36.0176 10.0923 35.9669 10.382L33.6071 23.822C33.3837 25.0193 32.7909 26.0922 31.9311 26.8554C31.0714 27.6187 29.9987 28.0242 28.8984 28.002L14.6157 28C12.3261 28.048 10.3246 26.296 9.8728 23.826L7.41585 10.48C7.40438 10.4284 7.39477 10.3764 7.38705 10.324L6.22247 4ZM11.3704 12L13.4007 23.026C13.5051 23.592 13.9839 24.012 14.5833 24H28.9308C29.496 24.012 29.9748 23.592 30.0756 23.04L32.0141 12H11.3704ZM14.3997 32H28.7994C29.2768 32 29.7346 32.2107 30.0722 32.5858C30.4097 32.9609 30.5994 33.4696 30.5994 34C30.5994 34.5304 30.4097 35.0391 30.0722 35.4142C29.7346 35.7893 29.2768 36 28.7994 36H14.3997C13.9223 36 13.4645 35.7893 13.1269 35.4142C12.7894 35.0391 12.5997 34.5304 12.5997 34C12.5997 33.4696 12.7894 32.9609 13.1269 32.5858C13.4645 32.2107 13.9223 32 14.3997 32Z" fill="white"/>
</svg>
